<?xml version="1.0" standalone="no"?>
<!DOCTYPE svg PUBLIC "-//W3C//DTD SVG 20010904//EN"
 "http://www.w3.org/TR/2001/REC-SVG-20010904/DTD/svg10.dtd">
<svg version="1.0" xmlns="http://www.w3.org/2000/svg"
 width="500.000000pt" height="500.000000pt" viewBox="0 0 500.000000 500.000000"
 preserveAspectRatio="xMidYMid meet">

<g transform="translate(0.000000,500.000000) scale(0.100000,-0.100000)"
fill="#000000" stroke="none">
<path d="M4047 4984 c-3 -10 -11 -55 -17 -99 -17 -118 -49 -242 -80 -312 -66
-146 -194 -215 -483 -258 -55 -8 -102 -17 -105 -19 -11 -11 12 -26 41 -26 30
0 186 -28 268 -48 121 -30 226 -112 276 -214 30 -63 75 -241 88 -350 6 -55 21
-84 29 -56 2 7 11 63 20 123 23 149 59 262 104 329 43 65 84 98 168 137 60 27
280 79 339 79 31 0 64 15 54 24 -3 3 -52 12 -110 21 -308 46 -429 118 -501
300 -20 51 -55 211 -64 295 -8 75 -18 104 -27 74z"/>
<path d="M1716 4733 c-3 -16 -12 -77 -20 -138 -99 -727 -244 -1022 -588 -1192
-115 -57 -236 -95 -448 -143 -45 -10 -277 -47 -438 -71 -77 -11 -108 -27 -89
-46 4 -3 77 -16 164 -28 613 -88 870 -183 1064 -393 155 -168 247 -427 318
-897 37 -238 40 -258 51 -269 19 -19 31 11 46 120 127 946 311 1208 954 1358
156 36 197 44 410 74 182 27 195 30 198 50 2 12 -1 22 -6 22 -18 0 -346 50
-427 65 -411 76 -626 170 -789 345 -162 176 -258 460 -327 965 -12 88 -25 170
-30 183 -12 31 -36 28 -43 -5z"/>
<path d="M3531 2673 c-39 -269 -92 -441 -165 -538 -100 -133 -270 -207 -569
-250 -153 -22 -157 -23 -157 -40 0 -10 10 -15 28 -15 62 0 329 -52 414 -80
276 -93 379 -254 443 -698 11 -73 23 -122 29 -122 7 0 22 67 39 167 45 279
102 428 200 521 68 63 123 94 232 131 88 29 353 81 414 81 20 0 31 5 31 14 0
17 -16 23 -95 31 -33 4 -103 15 -155 26 -313 61 -445 141 -529 323 -45 97 -85
258 -111 449 -8 56 -16 87 -24 87 -8 0 -17 -32 -25 -87z"/>
</g>
</svg>
